name C:\Users\u0101727\Documents\MyRepositories\upper-imu-dc\Results\main_tracking\Case_17\kinematics.mot
datacolumns 10
datarows 47
range 4.62000000 5.08000000
endheader 
time	clav_prot	clav_elev	scapula_abduction	scapula_elevation	scapula_upward_rot	scapula_winging	plane_elv	shoulder_elv	axial_rot	
          4.62000000	        -39.35807277	          2.84360365	        -19.67589682	         -5.99411545	         45.31595011	         -7.66081846	          5.37263613	         61.93935142	          3.97548435	
          4.63000000	        -39.43981773	          2.78386127	        -19.56474447	         -6.06983798	         45.60233581	         -7.71204537	          5.53568975	         62.17021001	          4.04905919	
          4.64000000	        -39.51815169	          2.72345757	        -19.44950596	         -6.14508551	         45.88689940	         -7.76045616	          5.69601668	         62.40340677	          4.12869197	
          4.65000000	        -39.59325060	          2.66208702	        -19.33054991	         -6.22007565	         46.16941673	         -7.80597793	          5.85344635	         62.63943430	          4.21453975	
          4.66000000	        -39.66551578	          2.59939966	        -19.20813688	         -6.29512814	         46.45024475	         -7.84869574	          6.00797878	         62.87806522	          4.30571234	
          4.67000000	        -39.73549970	          2.53500791	        -19.08239337	         -6.37063936	         46.73020733	         -7.88880072	          6.15972416	         63.11848615	          4.40040361	
          4.68000000	        -39.80384770	          2.46853007	        -18.95341446	         -6.44702306	         47.01036128	         -7.92654816	          6.30894046	         63.35947942	          4.49630980	
          4.69000000	        -39.87129613	          2.39971872	        -18.82150963	         -6.52459514	         47.29172273	         -7.96227628	          6.45621958	         63.59951805	          4.59124687	
          4.70000000	        -39.93871586	          2.32866804	        -18.68751115	         -6.60341247	         47.57503190	         -7.99648999	          6.60274917	         63.83673664	          4.68378629	
          4.71000000	        -40.00714200	          2.25602285	        -18.55298552	         -6.68311976	         47.86061284	         -8.02995657	          6.75047528	         64.06886329	          4.77368311	
          4.72000000	        -40.07772274	          2.18307548	        -18.42018837	         -6.76288019	         48.14835718	         -8.06373533	          6.90199388	         64.29325234	          4.86191243	
          4.73000000	        -40.15155533	          2.11166079	        -18.29169348	         -6.84144814	         48.43782573	         -8.09908143	          7.06010485	         64.50712145	          4.95025562	
          4.74000000	        -40.22943432	          2.04383396	        -18.16975903	         -6.91739320	         48.72843614	         -8.13721852	          7.22711262	         64.70799012	          5.04053790	
          4.75000000	        -40.31158634	          1.98139653	        -18.05561552	         -6.98942924	         49.01967562	         -8.17902981	          7.40408318	         64.89421892	          5.13375821	
          4.76000000	        -40.39748823	          1.92540211	        -17.94892894	         -7.05675772	         49.31125635	         -8.22475964	          7.59032456	         65.06548766	          5.22943048	
          4.77000000	        -40.48584905	          1.87579724	        -17.84766486	         -7.11931731	         49.60313897	         -8.27382793	          7.78331070	         65.22305337	          5.32542445	
          4.78000000	        -40.57478021	          1.83132964	        -17.74843131	         -7.17785007	         49.89541448	         -8.32483545	          7.97910888	         65.36967862	          5.41839366	
          4.79000000	        -40.66210418	          1.78969402	        -17.64718597	         -7.23380525	         50.18807734	         -8.37573675	          8.17317710	         65.50929689	          5.50463344	
          4.80000000	        -40.74571880	          1.74788992	        -17.54007389	         -7.28910202	         50.48081137	         -8.42414717	          8.36128646	         65.64646487	          5.58101152	
          4.81000000	        -40.82393836	          1.70272513	        -17.42416448	         -7.34579980	         50.77290402	         -8.46772762	          8.54033496	         65.78567228	          5.64564224	
          4.82000000	        -40.89575974	          1.65137608	        -17.29795009	         -7.40573544	         51.06333188	         -8.50458307	          8.70891180	         65.93060251	          5.69814815	
          4.83000000	        -40.96102715	          1.59192123	        -17.16157569	         -7.47017927	         51.35097536	         -8.53361596	          8.86756641	         66.08345547	          5.73955491	
          4.84000000	        -41.02048061	          1.52376381	        -17.01682735	         -7.53955955	         51.63486759	         -8.55477856	          9.01878817	         66.24446426	          5.77197926	
          4.85000000	        -41.07567834	          1.44786565	        -16.86691930	         -7.61330296	         51.91438070	         -8.56917450	          9.16672173	         66.41173048	          5.79827198	
          4.86000000	        -41.12879248	          1.36673227	        -16.71610672	         -7.68983006	         52.18929368	         -8.57897626	          9.31664822	         66.58145468	          5.82170676	
          4.87000000	        -41.18229479	          1.28412579	        -16.56914938	         -7.76672533	         52.45973848	         -8.58715280	          9.47427974	         66.74855900	          5.84571913	
          4.88000000	        -41.23857013	          1.20453309	        -16.43066593	         -7.84106918	         52.72606355	         -8.59703612	          9.64493952	         66.90760945	          5.87365259	
          4.89000000	        -41.29951120	          1.13247069	        -16.30443726	         -7.90988409	         52.98867871	         -8.61178920	          9.83271986	         67.05387046	          5.90847455	
          4.90000000	        -41.36616507	          1.07174731	        -16.19276834	         -7.97061809	         53.24792610	         -8.63386564	         10.03975045	         67.18429095	          5.95243998	
          4.91000000	        -41.43850690	          1.02482307	        -16.09603073	         -8.02157512	         53.50401612	         -8.66456698	         10.26572461	         67.29820712	          6.00675062	
          4.92000000	        -41.51540929	          0.99239438	        -16.01250763	         -8.06220629	         53.75704786	         -8.70380072	         10.50782831	         67.39757735	          6.07130815	
          4.93000000	        -41.59484031	          0.97329690	        -15.93862054	         -8.09319783	         54.00710232	         -8.75010870	         10.76115297	         67.48665938	          6.14466633	
          4.94000000	        -41.67425489	          0.96475068	        -15.86951686	         -8.11633318	         54.25436567	         -8.80096701	         11.01953108	         67.57119746	          6.22422960	
          4.95000000	        -41.75107470	          0.96288922	        -15.79987896	         -8.13416027	         54.49922940	         -8.85327914	         11.27658065	         67.65733833	          6.30666001	
          4.96000000	        -41.82313115	          0.96344558	        -15.72476329	         -8.14954274	         54.74232046	         -8.90393483	         11.52669408	         67.75056117	          6.38839339	
          4.97000000	        -41.88897598	          0.96243471	        -15.64029884	         -8.16520102	         54.98444058	         -8.95030296	         11.76576527	         67.85486769	          6.46615893	
          4.98000000	        -41.94801764	          0.95668481	        -15.54413391	         -8.18334461	         55.22642952	         -8.99056159	         11.99155779	         67.97237208	          6.53741833	
          4.99000000	        -42.00049234	          0.94412856	        -15.43559280	         -8.20546053	         55.46899329	         -9.02382561	         12.20372100	         68.10330433	          6.60066863	
          5.00000000	        -42.04731496	          0.92384795	        -15.31557046	         -8.23226718	         55.71255039	         -9.05009370	         12.40353556	         68.24632821	          6.65558561	
          5.01000000	        -42.08987128	          0.89593233	        -15.18624156	         -8.26379764	         55.95714058	         -9.07007698	         12.59350822	         68.39901703	          6.70300562	
          5.02000000	        -42.12979757	          0.86122429	        -15.05065587	         -8.29956383	         56.20241938	         -9.08497027	         12.77690738	         68.55835503	          6.74478529	
          5.03000000	        -42.16876411	          0.82098209	        -14.91225237	         -8.33878182	         56.44773910	         -9.09618680	         12.95727259	         68.72121460	          6.78347863	
          5.04000000	        -42.20840284	          0.77658619	        -14.77443451	         -8.38058318	         56.69245756	         -9.10519553	         13.13813184	         68.88445088	          6.82182309	
          5.05000000	        -42.25004142	          0.72923845	        -14.64006388	         -8.42420664	         56.93595830	         -9.11323744	         13.32241170	         69.04544432	          6.86241267	
          5.06000000	        -42.29444195	          0.67971733	        -14.51100072	         -8.46914992	         57.17763853	         -9.12106674	         13.51186999	         69.20261163	          6.90737528	
          5.07000000	        -42.34183018	          0.62828998	        -14.38788623	         -8.51524220	         57.41722336	         -9.12892854	         13.70700753	         69.35519620	          6.95784883	
          5.08000000	        -42.39183879	          0.57467760	        -14.27001337	         -8.56266355	         57.65480901	         -9.13650411	         13.90691417	         69.50331676	          7.01373553	
